<svg width="343" height="171" viewBox="0 0 343 171" fill="none" xmlns="http://www.w3.org/2000/svg">
<g filter="url(#filter0_d_49_1367)">
<path d="M36.527 118.418L104.602 135.001C105.098 135.121 105.622 135.048 106.065 134.795L134.864 118.4C135.31 118.146 135.641 117.731 135.789 117.239L159.806 37.5794C160.256 36.0891 158.905 34.6794 157.397 35.0642L109.716 47.2293C108.451 47.552 107.221 46.5965 107.221 45.2914V38.1144C107.221 36.8625 106.084 35.9184 104.854 36.1485L43.6647 47.5917C42.7951 47.7543 42.1357 48.4688 42.0433 49.3485L35.0113 116.266C34.9067 117.262 35.5543 118.181 36.527 118.418Z" fill="#FF6600"/>
</g>
<rect x="74.7188" y="60.9927" width="23.5817" height="44.0605" rx="11.7909" fill="white"/>
<rect x="100.783" y="60.9926" width="23.5817" height="44.0605" rx="11.7909" fill="white"/>
<rect x="87.1299" y="69.991" width="4.96457" height="27.3051" rx="2.48228" fill="#FF6600"/>
<rect x="114.435" y="69.3704" width="4.96457" height="27.3051" rx="2.48228" fill="#FF6600"/>
<path d="M45.8286 112.001L103.777 126.127L128.571 112.001L149.329 44.2499L102.912 55.4937V44.2499L51.8829 54.3405L45.8286 112.001Z" fill="black"/>
<rect x="76.3887" y="62.7012" width="21.9109" height="40.9387" rx="10.3788" fill="white"/>
<rect x="100.606" y="62.7012" width="21.9109" height="40.9387" rx="10.3788" fill="white"/>
<rect x="87.9209" y="71.062" width="4.61281" height="25.3705" rx="2.30641" fill="black"/>
<rect x="113.291" y="70.4854" width="4.61281" height="25.3705" rx="2.30641" fill="black"/>
<path d="M207.836 75.5441C207.518 74.3671 207.051 73.3303 206.435 72.4335C205.818 71.5181 205.062 70.7428 204.165 70.1076C203.268 69.4724 202.241 68.996 201.082 68.6784C199.924 68.3421 198.654 68.1739 197.271 68.1739C194.487 68.1739 192.077 68.8465 190.041 70.1916C188.023 71.5368 186.463 73.4984 185.361 76.0766C184.259 78.6361 183.708 81.7467 183.708 85.4084C183.708 89.0889 184.24 92.2275 185.305 94.8244C186.37 97.4212 187.911 99.4015 189.929 100.765C191.947 102.129 194.394 102.811 197.271 102.811C199.812 102.811 201.96 102.4 203.716 101.578C205.491 100.737 206.836 99.551 207.752 98.0191C208.667 96.4871 209.125 94.6842 209.125 92.6105L211.703 92.9188H197.747V82.8022H222.492V90.3966C222.492 95.5343 221.399 99.934 219.214 103.596C217.046 107.257 214.057 110.069 210.246 112.031C206.453 113.992 202.091 114.973 197.159 114.973C191.685 114.973 186.874 113.787 182.727 111.414C178.579 109.042 175.347 105.66 173.031 101.27C170.714 96.8607 169.556 91.6297 169.556 85.5766C169.556 80.8686 170.256 76.6931 171.658 73.05C173.059 69.3883 175.011 66.287 177.514 63.7462C180.037 61.2054 182.951 59.2811 186.258 57.9734C189.583 56.6656 193.161 56.0117 196.991 56.0117C200.316 56.0117 203.408 56.4881 206.267 57.4409C209.144 58.3937 211.685 59.7388 213.889 61.4763C216.112 63.2138 217.915 65.2782 219.298 67.6695C220.68 70.0609 221.539 72.6857 221.876 75.5441H207.836ZM250.761 115.001C246.24 115.001 242.354 114.077 239.103 112.227C235.871 110.359 233.377 107.762 231.621 104.436C229.884 101.092 229.015 97.2157 229.015 92.8067C229.015 88.3789 229.884 84.5023 231.621 81.1769C233.377 77.8327 235.871 75.2359 239.103 73.3863C242.354 71.5181 246.24 70.584 250.761 70.584C255.282 70.584 259.159 71.5181 262.391 73.3863C265.642 75.2359 268.136 77.8327 269.873 81.1769C271.629 84.5023 272.507 88.3789 272.507 92.8067C272.507 97.2157 271.629 101.092 269.873 104.436C268.136 107.762 265.642 110.359 262.391 112.227C259.159 114.077 255.282 115.001 250.761 115.001ZM250.845 104.661C252.489 104.661 253.881 104.156 255.021 103.147C256.16 102.139 257.029 100.737 257.627 98.9438C258.243 97.1503 258.552 95.0766 258.552 92.7226C258.552 90.3312 258.243 88.2388 257.627 86.4453C257.029 84.6518 256.16 83.2506 255.021 82.2418C253.881 81.2329 252.489 80.7285 250.845 80.7285C249.145 80.7285 247.707 81.2329 246.53 82.2418C245.371 83.2506 244.484 84.6518 243.867 86.4453C243.269 88.2388 242.971 90.3312 242.971 92.7226C242.971 95.0766 243.269 97.1503 243.867 98.9438C244.484 100.737 245.371 102.139 246.53 103.147C247.707 104.156 249.145 104.661 250.845 104.661ZM289.644 71.1444L296.734 85.3244L304.076 71.1444H317.892L305.869 92.6665L318.34 114.189H304.636L296.734 99.8966L289.027 114.189H275.128L287.626 92.6665L275.744 71.1444H289.644ZM324.148 114.189V71.1444H337.851V114.189H324.148ZM331.014 66.1282C329.089 66.1282 327.436 65.493 326.053 64.2226C324.671 62.9335 323.98 61.3829 323.98 59.5707C323.98 57.7772 324.671 56.2452 326.053 54.9748C327.436 53.6857 329.089 53.0412 331.014 53.0412C332.957 53.0412 334.61 53.6857 335.974 54.9748C337.356 56.2452 338.048 57.7772 338.048 59.5707C338.048 61.3829 337.356 62.9335 335.974 64.2226C334.61 65.493 332.957 66.1282 331.014 66.1282Z" fill="black"/>
<defs>
<filter id="filter0_d_49_1367" x="0" y="0" width="194.894" height="170.057" filterUnits="userSpaceOnUse" color-interpolation-filters="sRGB">
<feFlood flood-opacity="0" result="BackgroundImageFix"/>
<feColorMatrix in="SourceAlpha" type="matrix" values="0 0 0 0 0 0 0 0 0 0 0 0 0 0 0 0 0 0 127 0" result="hardAlpha"/>
<feOffset/>
<feGaussianBlur stdDeviation="17.5"/>
<feComposite in2="hardAlpha" operator="out"/>
<feColorMatrix type="matrix" values="0 0 0 0 0.700068 0 0 0 0 0.000225361 0 0 0 0 1 0 0 0 1 0"/>
<feBlend mode="normal" in2="BackgroundImageFix" result="effect1_dropShadow_49_1367"/>
<feBlend mode="normal" in="SourceGraphic" in2="effect1_dropShadow_49_1367" result="shape"/>
</filter>
</defs>
</svg>
